# xmcd CD database file
#
# Track frame offsets:
#	150
#	21609
#	36423
#	50241
#	64612
#	79477
#	95950
#	113656
#	134370
#	150752
#	166958
#	185391
#	202500
#	217224
#
# Disc length: 3199 seconds
#
# Revision: 0
# Processed by: cddbd v1.5.2PL0 Copyright (c) Steve Scherf et al.
# Submitted via: CDex 1.51
#
DISCID=c80c7d0e
DTITLE=SOUNDGATE magazine 03 - MOUNTAINS MAGIC SOUNDS
DYEAR=2006
DGENRE=New Age
TTITLE0=Campi al lago
TTITLE1=Universo Marmolada
TTITLE2=Il trono del padreterno
TTITLE3=Le cascate Fanes
TTITLE4=L'ultimo ghiacciaio
TTITLE5=Bella Moena
TTITLE6=I cinque passi
TTITLE7=I tre sciatori
TTITLE8=La compagnia di Villanova
TTITLE9=I cavalli dell'Armentalora
TTITLE10=Il cervo e l'aquila reale
TTITLE11=Vento a passo Giau
TTITLE12=La neve nel bosco di notte
TTITLE13=Nuvole su Plan de Corones
EXTD=YEAR: 2006
EXTT0=
EXTT1=
EXTT2=
EXTT3=
EXTT4=
EXTT5=
EXTT6=
EXTT7=
EXTT8=
EXTT9=
EXTT10=
EXTT11=
EXTT12=
EXTT13=
PLAYORDER=
